<svg xmlns="http://www.w3.org/2000/svg" viewBox="0 0 900 620" width="900" height="620" role="img" aria-label="MATERIAL FERROSO">
<defs>
<pattern id="hatch" width="14" height="14" patternTransform="rotate(45)" patternUnits="userSpaceOnUse">
<line x1="0" y1="0" x2="0" y2="14" stroke="#ffffff" stroke-opacity="0.045" stroke-width="7"/>
</pattern>
<linearGradient id="g" x1="0" y1="0" x2="1" y2="1">
<stop offset="0%" stop-color="#1c1f24"/><stop offset="60%" stop-color="#2a2f36"/><stop offset="100%" stop-color="#12151a"/>
</linearGradient>
</defs>
<rect width="900" height="620" fill="url(#g)"/>
<rect width="900" height="620" fill="url(#hatch)"/>
<circle cx="702" cy="186" r="11" fill="#e8611a" opacity="0.10"/><circle cx="670" cy="220" r="16" fill="#e8611a" opacity="0.11"/><circle cx="639" cy="254" r="22" fill="#e8611a" opacity="0.12"/><circle cx="608" cy="288" r="27" fill="#e8611a" opacity="0.14"/><circle cx="576" cy="322" r="32" fill="#e8611a" opacity="0.15"/><circle cx="544" cy="356" r="38" fill="#e8611a" opacity="0.16"/><circle cx="513" cy="391" r="43" fill="#e8611a" opacity="0.17"/><circle cx="702" cy="186" r="11" fill="#ffffff" opacity="0.05"/><circle cx="720" cy="232" r="16" fill="#ffffff" opacity="0.06"/><circle cx="738" cy="279" r="22" fill="#ffffff" opacity="0.07"/><circle cx="756" cy="326" r="27" fill="#ffffff" opacity="0.07"/><circle cx="774" cy="372" r="32" fill="#ffffff" opacity="0.08"/><circle cx="792" cy="418" r="38" fill="#ffffff" opacity="0.09"/><circle cx="810" cy="465" r="43" fill="#ffffff" opacity="0.10"/>
<rect x="0" y="614" width="900" height="6" fill="#e8611a"/>
<g font-family="Segoe UI, Arial, sans-serif" text-anchor="middle">
<text x="450.0" y="306.0" fill="#ffffff" fill-opacity="0.88" font-size="34" font-weight="700" letter-spacing="2">MATERIAL FERROSO</text>
<text x="450.0" y="349" fill="#e8611a" font-size="15" font-weight="600" letter-spacing="4">FOTO PENDIENTE 900x620</text>
</g>
</svg>